<svg xmlns="http://www.w3.org/2000/svg" xmlns:xlink="http://www.w3.org/1999/xlink" id="Layer_1" x="0" y="0" version="1.1" viewBox="0 0 62 62" xml:space="preserve" style="enable-background:new 0 0 62 62"><style type="text/css">.st1{opacity:.21}.st5{fill:#fff7f7}.st6{opacity:.1}.st8{fill:#1c1c1a}.st10,.st11{fill:#ad202b}.st11{opacity:.1}.st31{fill:#e63d32}</style><g><g><g><g><g><path d="M48.4,23l0.7-0.1c0,0-0.1-1.2,0.3-1.5c0.4,0,1.8,0.2,2,0.4c0.2,0.2,0.5,0.7,0.4,1.1 c-0.1,0.3-1.4,0.5-2.1,0.5c-0.7,0-1.1,0.1-1.1,0.1" class="st10"/><path d="M48.4,23l0.7-0.1c0,0-0.1-1.2,0.3-1.5c0.4,0,1.8,0.2,2,0.4c0.2,0.2,0.5,0.7,0.4,1.1 c-0.1,0.3-1.4,0.5-2.1,0.5c-0.7,0-1.1,0.1-1.1,0.1" class="st11"/></g></g><path d="M36.7,38.3l7-0.1c0,0,0.9-0.1,1.4,0.1s6.3-0.6,6.3-0.6l0.1,0.1c0,0,0.5,0.2,0.7-0.5c1-7-0.1-10.6-0.2-11 C52,26,50.6,25,50.2,24.8c-0.4-0.2-1.3-1-1.3-1s-0.2-0.3-0.5-1.1c-0.3-0.7-2-5.2-3.6-5.6c-1.5-0.4-5.7-0.8-7.6-0.8 c-0.3,0-0.6,0-0.9,0c-1.9,0-6.2,0.3-7.7,0.8c-1.6,0.5-3.4,4.9-3.6,5.6c-0.3,0.7-0.5,1.1-0.5,1.1s-0.9,0.8-1.3,1s-1.9,1.2-1.9,1.6 c-0.1,0.3-1.2,4-0.2,11c0.2,0.7,0.7,0.5,0.7,0.5l0.1-0.1c0,0,5.9,0.7,6.3,0.6c0.5-0.2,1.4-0.1,1.4-0.1L36.7,38.3z" class="st31"/><path d="M51.4,34.8c0,0-5.9,0.6-6.4,0.7c-0.7,0.1-1.3,0.2-1.3,0.2l-7,0.1l-7-0.1c0,0-3.4-0.6-3.9-0.5 c-0.5,0.2-3.6-0.3-3.6-0.3s-1.4-3.1-1.4-4.3c-0.1,1.7,0,4,0.4,6.8c0.3,0.2,0.8,0.4,0.8,0.4s5.9,0.7,6.3,0.6 c0.5-0.2,1.4-0.1,1.4-0.1l7,0.1l7-0.1c0,0,0.9-0.1,1.4,0.1c0.5,0.2,6.3-0.6,6.3-0.6s0.3,0,0.8-0.4c0.4-2.8,0.5-5.1,0.4-6.8 C52.6,31.8,51.4,34.8,51.4,34.8z" class="st10"/><path d="M22.1,26.7c0,0-0.7,2.1,0.4,2.7c0.9,0.5,1.2,0.5,1.2,0.5l0.9-0.3c0,0,2,0.6,2.8,0.5c0.8-0.1,1.5-0.6,1.5-0.6 S27.7,27.7,22.1,26.7z" class="st5"/><path d="M21.3,37.5c0,0,0.1,2.3,0.9,2.3c0.8,0,2.8,0.1,3,0c0.2-0.1,0.7-0.5,0.7-1.6" class="st8"/><path d="M51.4,26.7c0,0,0.7,2.1-0.4,2.7c-0.9,0.5-1.2,0.5-1.2,0.5L49,29.6c0,0-2,0.6-2.8,0.5 c-0.8-0.1-1.5-0.6-1.5-0.6S45.8,27.7,51.4,26.7z" class="st5"/><path d="M52.2,37.5c0,0-0.1,2.3-0.9,2.3s-2.8,0.1-3,0c-0.2-0.1-0.7-0.5-0.7-1.6" class="st8"/><path d="M28.1,18.1h17.3c0,0-0.3-0.4-0.7-1c-1.6-0.4-5.6-0.8-7.5-0.7c-0.3,0-0.6,0-0.9,0c-1.9,0-5.9,0.3-7.5,0.7 C28.6,17.4,28.3,17.7,28.1,18.1z" class="st8"/><path d="M48.1,23.7c-0.2-1.1-1.9-4.9-2.9-5.7c-0.8-0.1-3.1-0.3-5.1-0.4c-2.2-0.2-4.5-0.2-6.7,0c-2,0.1-4.2,0.3-5,0.4 c-1,0.8-2.6,4.8-2.8,5.9c0.7,0,11.2-0.1,11.2-0.1" class="st5"/></g><g><path d="M42.5,31.3h-11c-0.1,0-0.3-0.1-0.3-0.3v-0.1c0-0.1,0.1-0.2,0.3-0.2h11c0.1,0,0.2,0.1,0.2,0.2V31 C42.8,31.1,42.7,31.3,42.5,31.3z" class="st8"/><path d="M42.3,32.6H31.7c-0.1,0-0.3-0.1-0.3-0.3v-0.1c0-0.1,0.1-0.3,0.3-0.3h10.6c0.1,0,0.2,0.1,0.2,0.3v0.1 C42.5,32.4,42.4,32.6,42.3,32.6z" class="st8"/><path d="M42,33.9h-10c-0.1,0-0.2-0.1-0.2-0.2v-0.1c0-0.1,0.1-0.2,0.2-0.2h10c0.1,0,0.3,0.1,0.3,0.2v0.1 C42.3,33.7,42.1,33.9,42,33.9z" class="st8"/></g></g><g><g class="st1"><path d="M37.3,24.3H9.5c-0.1,0-0.2,0.1-0.2,0.2v2.7h0.6v0v1.7v11.9v0.1v2.8c0,0.1,0.1,0.2,0.2,0.2h26.8c0.1,0,0.2-0.1,0.2-0.2 v-2.8v-0.1V28.9v-1.7l-1.2,0h1.5c0.1,0,0.2-0.1,0.2-0.2v-2.4C37.5,24.4,37.4,24.3,37.3,24.3z"/><path d="M16.8,23.6h-1.4V21c0-0.1-0.1-0.2-0.2-0.2h-2c-0.1,0-0.2,0.1-0.2,0.2v2.6h-1.4v0.7h5.3V23.6z"/><path d="M34.4,23.6H33V21c0-0.1-0.1-0.2-0.2-0.2h-2c-0.1,0-0.2,0.1-0.2,0.2v2.6h-1.4v0.7h5.3V23.6z"/></g><g><rect width="2.6" height="2.9" x="14.3" y="22" class="st31"/><rect width="2.6" height="2.9" x="32" y="22" class="st8"/><rect width="26.8" height="14.1" x="11.3" y="28.5" class="st5"/><rect width="28.4" height="3.1" x="10.5" y="42.5" class="st8"/><rect width="27" height="1.8" x="11.3" y="28.5" class="st6"/><rect width="28.3" height="3" x="10.5" y="25.5" class="st8"/><g><circle cx="32.8" cy="36.3" r="2.9" class="st8"/><circle cx="16.6" cy="36.3" r="2.9" class="st8"/><rect width="3.6" height=".8" x="31.1" y="35.8" class="st5" transform="matrix(-1 -4.570756e-11 4.570756e-11 -1 65.7478 72.497)"/><polygon points="14.8 35.8 16.2 35.8 16.2 34.4 17 34.4 17 35.8 18.5 35.8 18.5 36.7 17 36.7 17 38.1 16.2 38.1 16.2 36.7 14.8 36.7" class="st5"/><polygon points="24.2 32.8 26 32.8 24.3 35.6 26 35.6 23.4 39.6 24.4 36.1 23 36.1" class="st31"/></g><rect width="5.5" height=".7" x="12.8" y="24.8" class="st8"/><rect width="5.5" height=".7" x="30.5" y="24.8" class="st8"/></g></g></g></svg>