<svg xmlns="http://www.w3.org/2000/svg" xmlns:xlink="http://www.w3.org/1999/xlink" id="Layer_1" x="0" y="0" version="1.1" viewBox="0 0 158 148" xml:space="preserve" style="enable-background:new 0 0 158 148"><style type="text/css">.st0{fill:#e73c33}.st1{fill:#071c2c}.st2{fill:#fff}</style><path id="XMLID_658_" d="M141.1,100.1h-23.3h-0.3H94.2c-1.1,0-2.1,0.6-2.6,1.6l18.6,15h7.3h0.3h7.3l18.6-15	C143.3,100.8,142.3,100.1,141.1,100.1z" class="st0"/><polygon id="XMLID_657_" points="143.7 101.4 117.7 75.8 117.7 75.7 117.6 75.7 117.5 75.7 117.5 75.8 91.5 101.4" class="st0"/><rect id="XMLID_656_" width="41.2" height="28.8" x="97.1" y="89.3" class="st1"/><rect id="XMLID_655_" width="27" height="1.7" x="104.2" y="97.3" class="st2"/><rect id="XMLID_654_" width="27" height="1.7" x="104.2" y="103.6" class="st2"/><path id="XMLID_653_" d="M96.7,133.5l21.3-15.4l-26.4-16.4c-0.2,0.4-0.4,0.9-0.4,1.4v26.2c0,2.3,1.9,4.2,4.2,4.2H96.7z" class="st0"/><path id="XMLID_652_" d="M139.9,133.5c2.3,0,4.2-1.9,4.2-4.2v-26.2c0-0.5-0.1-1-0.4-1.4l-26.4,16.4l21.3,15.4H139.9z" class="st0"/><polygon id="XMLID_651_" points="138.6 133.5 117.6 118.2 96.7 133.5" class="st0"/></svg>