<svg xmlns="http://www.w3.org/2000/svg" xmlns:xlink="http://www.w3.org/1999/xlink" id="Layer_1" x="0" y="0" version="1.1" viewBox="0 0 62 62" xml:space="preserve" style="enable-background:new 0 0 62 62"><style type="text/css">.st1{opacity:.21}.st5{fill:#fff7f7}.st8{fill:#1c1c1a}.st19{fill:none;stroke:#1c1c1a;stroke-miterlimit:10}.st20{fill:#f7e3e2}.st21{opacity:.21;fill:#1c1c1a}</style><g><line x1="36.9" x2="28.9" y1="41.1" y2="40.6" class="st1"/><path d="M39.3,39.4l6.8-6.6c0.4-0.4,1-0.7,1.7-0.7c0.5,0,1,0.1,1.4,0.6c0.5,0.4,0.6,1,0.6,1.5c0,0.8-0.3,1.5-0.9,2 c-1.6,1.6-6.7,6.7-8.4,8.4C38.9,46.2,37,46,37,46l-11.7-0.7L25,45.4l-2.3,1.8l-5.8-6l5.1-4.5c0,0,1.3-1.2,4.3-0.7 c3,0.4,10.6,0.9,10.6,0.9" class="st1"/><g><g><circle cx="33.9" cy="22.7" r="11" class="st19"/><circle cx="33.9" cy="22.7" r="11" class="st8"/><circle cx="33.9" cy="22.7" r="7.1" class="st5"/><g><path d="M31,17l2.1,3.6c0.3,0.6,1.1,0.6,1.5,0l2.1-3.6c0,0-0.8-0.8-2.8-0.8C31.9,16.2,31,17,31,17z" class="st8"/><path d="M38.2,18.1l-2.6,3.3c-0.4,0.5-0.1,1.3,0.5,1.3l4.2,0.6c0,0,0.4-1.1-0.3-2.9C39.3,18.6,38.2,18.1,38.2,18.1z" class="st8"/><path d="M39.8,25.3l-4-1.4c-0.6-0.2-1.2,0.3-1.1,0.9l0.8,4.1c0,0,1.2,0.1,2.7-1.2C39.6,26.5,39.8,25.3,39.8,25.3z" class="st8"/><path d="M33.1,29l0.3-4.2c0-0.6-0.6-1.1-1.2-0.8l-3.8,1.9c0,0,0.2,1.1,1.9,2.2C31.9,29.2,33.1,29,33.1,29z" class="st8"/><path d="M27.5,23.8l4.1-0.9c0.6-0.1,0.9-0.9,0.4-1.4l-2.9-3.1c0,0-1,0.6-1.6,2.4C27,22.7,27.5,23.8,27.5,23.8z" class="st8"/></g></g><path d="M38.8,38.4l6.8-6.6c0.4-0.4,1-0.7,1.7-0.7c0.5,0,1,0.1,1.4,0.6c0.5,0.4,0.6,1,0.6,1.5c0,0.8-0.3,1.5-0.9,2 c-1.6,1.6-6.7,6.7-8.4,8.4c-1.6,1.5-3.5,1.4-3.5,1.4l-11.7-0.7l-0.2,0.2l-2.3,1.8l-5.8-6l5.1-4.5c0,0,1.3-1.2,4.3-0.7 c3,0.4,10.6,0.9,10.6,0.9s2,0.2,2.1,2.3c0.1,2.1-2.2,1.8-2.2,1.8l-8-0.5" class="st20"/><path d="M19.7,50L19.7,50c0.4,0.3,0.9,0.3,1.3,0l2-1.8c0.5-0.4,0.5-1.1,0-1.5l-7.2-6.9c-0.4-0.4-1-0.4-1.4,0l-2,1.8 c-0.4,0.4-0.4,1.1,0,1.5L19.7,50z" class="st8"/><path d="M28,39.7c0,0,7.7,0.5,7.7,0.5c1.6,0.2,2.5-0.2,2.8-1.2c0-0.2,0.1-0.3,0.1-0.5c0,0.3,0,0.7,0,1 c-0.1,0.6-0.5,1.2-1.1,1.5c-0.6,0.2-1.1,0.1-1.7-0.1c-0.4-0.1-0.8-0.1-1.3-0.2c-1-0.2-2-0.3-2.9-0.5c-0.9-0.1-1.7-0.3-2.6-0.4 C28.7,39.8,28.4,39.7,28,39.7z" class="st21"/><g><path d="M12.5,42.8L12.5,42.8c-0.2-0.2-0.2-0.4,0-0.5l2.5-2.7c0.1-0.1,0.3-0.1,0.4,0l0,0c0.1,0.1,0.1,0.3,0,0.4 l-2.5,2.7C12.8,42.9,12.6,42.9,12.5,42.8z" class="st8"/><path d="M13.6,43.8L13.6,43.8c-0.2-0.2-0.2-0.4,0-0.5l2.5-2.7c0.1-0.1,0.3-0.1,0.4,0l0,0c0.1,0.1,0.1,0.3,0,0.4 l-2.5,2.7C13.9,43.9,13.7,43.9,13.6,43.8z" class="st8"/><path d="M14.7,44.9L14.7,44.9c-0.2-0.2-0.2-0.4,0-0.5l2.5-2.7c0.1-0.1,0.3-0.1,0.4,0l0,0c0.1,0.1,0.1,0.3,0,0.4 l-2.5,2.7C15.1,45,14.9,45,14.7,44.9z" class="st8"/><path d="M15.8,45.9L15.8,45.9c-0.2-0.2-0.2-0.4,0-0.5l2.5-2.7c0.1-0.1,0.3-0.1,0.4,0l0,0c0.1,0.1,0.1,0.3,0,0.4 l-2.5,2.7C16.2,46,16,46,15.8,45.9z" class="st8"/><path d="M17,47L17,47c-0.2-0.2-0.2-0.4,0-0.5l2.5-2.7c0.1-0.1,0.3-0.1,0.4,0l0,0c0.1,0.1,0.1,0.3,0,0.4L17.4,47 C17.3,47.1,17.1,47.1,17,47z" class="st8"/><path d="M18.1,48L18.1,48c-0.2-0.2-0.2-0.4,0-0.5l2.5-2.7c0.1-0.1,0.3-0.1,0.4,0l0,0c0.1,0.1,0.1,0.3,0,0.4L18.5,48 C18.4,48.2,18.2,48.2,18.1,48z" class="st8"/><path d="M19.2,49.1L19.2,49.1c-0.2-0.2-0.2-0.4,0-0.5l2.5-2.7c0.1-0.1,0.3-0.1,0.4,0l0,0c0.1,0.1,0.1,0.3,0,0.4 l-2.5,2.7C19.5,49.2,19.3,49.2,19.2,49.1z" class="st8"/><path d="M20.3,50.2L20.3,50.2c-0.2-0.2-0.2-0.4,0-0.5l2.5-2.7c0.1-0.1,0.3-0.1,0.4,0l0,0c0.1,0.1,0.1,0.3,0,0.4 l-2.5,2.7C20.6,50.3,20.4,50.3,20.3,50.2z" class="st8"/></g></g></g></svg>